M48
; DRILL file {KiCad (5.1.9)-1} date 03/31/21 06:49:43
; FORMAT={-:-/ absolute / metric / decimal}
; #@! TF.CreationDate,2021-03-31T06:49:43+07:00
; #@! TF.GenerationSoftware,Kicad,Pcbnew,(5.1.9)-1
; #@! TF.FileFunction,Plated,1,2,PTH
FMAT,2
METRIC
T1C0.400
T2C0.800
T3C0.950
T4C1.000
T5C1.700
%
G90
G05
T1
X87.63Y-48.26
X87.63Y-55.88
X113.03Y-74.93
X125.73Y-46.99
T2
X69.85Y-36.83
X69.85Y-44.45
X69.85Y-54.61
X69.85Y-62.23
X69.85Y-72.39
X69.85Y-80.01
X69.85Y-90.17
X69.85Y-97.79
X69.85Y-107.95
X69.85Y-115.57
X81.28Y-92.71
X81.28Y-100.33
X83.82Y-107.95
X88.9Y-92.71
X88.9Y-100.33
X91.44Y-107.95
X96.52Y-92.71
X96.52Y-100.33
X99.06Y-92.71
X99.06Y-100.33
X101.6Y-92.71
X101.6Y-100.33
X101.6Y-107.95
X104.14Y-92.71
X104.14Y-100.33
X109.22Y-107.95
X111.76Y-94.52
X111.76Y-96.52
T3
X129.54Y-110.49
X129.54Y-112.99
X129.54Y-115.49
X129.54Y-117.99
T4
X93.98Y-33.02
X93.98Y-35.56
X93.98Y-38.1
X93.98Y-40.64
X93.98Y-43.18
X93.98Y-45.72
X93.98Y-48.26
X93.98Y-50.8
X93.98Y-53.34
X93.98Y-55.88
X93.98Y-62.23
X93.98Y-64.77
X93.98Y-67.31
X93.98Y-69.85
X93.98Y-72.39
X93.98Y-74.93
X93.98Y-77.47
X93.98Y-80.01
X93.98Y-82.55
X93.98Y-85.09
X106.68Y-33.02
X106.68Y-35.56
X106.68Y-38.1
X106.68Y-40.64
X106.68Y-43.18
X106.68Y-45.72
X106.68Y-48.26
X106.68Y-50.8
X106.68Y-53.34
X106.68Y-55.88
X106.68Y-58.42
X106.68Y-60.96
X106.68Y-63.5
X106.68Y-66.04
X106.68Y-68.58
X124.46Y-97.79
X127.0Y-97.79
X129.54Y-97.79
X132.08Y-33.02
X132.08Y-35.56
X132.08Y-38.1
X132.08Y-40.64
X132.08Y-43.18
X132.08Y-45.72
X132.08Y-48.26
X132.08Y-50.8
X132.08Y-53.34
X132.08Y-55.88
X132.08Y-58.42
X132.08Y-60.96
X132.08Y-63.5
X132.08Y-66.04
X132.08Y-68.58
X132.08Y-97.79
T5
X55.88Y-41.91
X55.88Y-59.69
X55.88Y-77.47
X55.88Y-95.25
X55.88Y-113.03
X60.96Y-36.83
X60.96Y-39.37
X60.96Y-44.45
X60.96Y-46.99
X60.96Y-54.61
X60.96Y-57.15
X60.96Y-62.23
X60.96Y-64.77
X60.96Y-72.39
X60.96Y-74.93
X60.96Y-80.01
X60.96Y-82.55
X60.96Y-90.17
X60.96Y-92.71
X60.96Y-97.79
X60.96Y-100.33
X60.96Y-107.95
X60.96Y-110.49
X60.96Y-115.57
X60.96Y-118.11
X83.82Y-116.84
X86.36Y-116.84
X88.9Y-121.92
X91.44Y-116.84
X93.98Y-116.84
X101.6Y-116.84
X104.14Y-116.84
X106.68Y-121.92
X109.22Y-116.84
X111.76Y-116.84
T0
M30
