M48
; DRILL file {KiCad (5.1.9)-1} date 03/31/21 06:49:43
; FORMAT={-:-/ absolute / metric / decimal}
; #@! TF.CreationDate,2021-03-31T06:49:43+07:00
; #@! TF.GenerationSoftware,Kicad,Pcbnew,(5.1.9)-1
; #@! TF.FileFunction,NonPlated,1,2,NPTH
FMAT,2
METRIC
T1C1.200
T2C2.700
%
G90
G05
T1
X53.34Y-36.83
X53.34Y-46.99
X53.34Y-54.61
X53.34Y-64.77
X53.34Y-72.39
X53.34Y-82.55
X53.34Y-90.17
X53.34Y-100.33
X53.34Y-107.95
X53.34Y-118.11
X55.88Y-36.83
X55.88Y-46.99
X55.88Y-54.61
X55.88Y-64.77
X55.88Y-72.39
X55.88Y-82.55
X55.88Y-90.17
X55.88Y-100.33
X55.88Y-107.95
X55.88Y-118.11
X83.82Y-121.92
X83.82Y-124.46
X93.98Y-121.92
X93.98Y-124.46
X101.6Y-121.92
X101.6Y-124.46
X111.76Y-121.92
X111.76Y-124.46
T2
X55.88Y-30.48
X71.12Y-121.92
X118.11Y-41.91
X118.11Y-121.92
T0
M30
